#!OML:ASF C:\ViconDB\ViconDB\414\Spring2016\042216\male.ASF
:FULLY-SPECIFIED
:DEGREES
950
root 12.9011 17.6397 3.96343 -174.738 73.4216 -174.897
lowerback -3.57231 -1.65723 1.57524
upperback -0.802641 -2.24564 -0.697316
thorax 1.08895 -1.11309 -1.69566
lowerneck 0.735601 13.4083 -1.6908
upperneck -1.35858 17.925 -6.33125
head -0.0817255 9.03546 -1.6702
rclavicle 9.67833e-015 3.97569e-015
rhumerus -31.9321 -5.87417 -92.3218
rradius 24.4913
rwrist 30.9061
rhand 14.8724 -17.6174
rfingers 7.12502
rthumb 39.7315 -42.9239
lclavicle 9.67833e-015 3.97569e-015
lhumerus -38.2143 18.8273 82.3474
lradius 30.7554
lwrist -17.4946
lhand -7.22141 12.9403
lfingers 7.12502
lthumb 18.6579 42.0655
rfemur -4.72873 8.88287 19.9315
rtibia 15.8711
rfoot -12.5287 -7.34759
rtoes -3.38779
lfemur -1.09492 -9.45539 -19.5174
ltibia 15.1019
lfoot -22.2658 23.8398
ltoes -9.38889
951
root 12.9091 17.6435 3.96579 -174.474 73.4232 -174.7
lowerback -3.94514 -1.65336 1.58867
upperback -0.644941 -2.24848 -0.662008
thorax 1.46005 -1.10976 -1.68313
lowerneck 0.438069 13.4092 -1.55666
upperneck -1.44028 17.9358 -6.50586
head -0.030306 9.03858 -1.7189
rclavicle 9.47954e-015 1.19271e-015
rhumerus -31.6765 -6.36215 -92.0712
rradius 24.3843
rwrist 31.4798
rhand 15.1152 -17.5555
rfingers 7.12502
rthumb 39.9601 -42.7936
lclavicle 9.47954e-015 1.19271e-015
lhumerus -37.7138 18.3827 82.9503
lradius 30.952
lwrist -16.6183
lhand -7.37931 12.9826
lfingers 7.12502
lthumb 18.506 42.1223
rfemur -4.81039 8.15257 19.9652
rtibia 15.854
rfoot -12.4542 -6.63879
rtoes -3.59015
lfemur -1.11544 -9.42985 -19.438
ltibia 15.0366
lfoot -22.2031 23.8527
ltoes -9.42767
952
root 12.9148 17.6441 3.96905 -174.479 73.3935 -174.706
lowerback -4.09693 -1.66884 1.54439
upperback -0.560626 -2.27062 -0.64522
thorax 1.63304 -1.11885 -1.64925
lowerneck 0.163671 13.4158 -1.46737
upperneck -1.35927 17.9596 -6.53281
head 0.0504604 9.04308 -1.71257
rclavicle 3.31225e-014 1.03368e-014
rhumerus -31.5459 -6.62489 -91.9027
rradius 24.3623
rwrist 31.7856
rhand 14.8224 -17.5498
rfingers 7.12502
rthumb 39.6844 -42.8703
lclavicle 3.31225e-014 1.03368e-014
lhumerus -37.3817 18.145 83.3982
lradius 31.0815
lwrist -16.2889
lhand -7.39214 12.8941
lfingers 7.12502
lthumb 18.4936 42.035
rfemur -4.84305 7.32617 19.9784
rtibia 15.8975
rfoot -12.4475 -5.95029
rtoes -3.70598
lfemur -1.07088 -9.40077 -19.425
ltibia 14.9854
lfoot -22.107 23.8542
ltoes -9.63491
953
root 12.9215 17.6445 3.97251 -174.521 73.3603 -174.722
lowerback -4.20807 -1.69301 1.50397
upperback -0.484769 -2.30384 -0.626554
thorax 1.7742 -1.13394 -1.61474
lowerneck -0.0160062 13.4264 -1.46524
upperneck -1.37252 17.9772 -6.49427
head 0.07224 9.04857 -1.68783
rclavicle 5.47279e-014 -4.37326e-015
rhumerus -31.4019 -6.9451 -91.7185
rradius 24.3194
rwrist 32.3075
rhand 14.7382 -17.3483
rfingers 7.12502
rthumb 39.6051 -42.6922
lclavicle 5.47279e-014 -4.37326e-015
lhumerus -37.117 17.8882 83.817
lradius 31.3474
lwrist -15.9404
lhand -7.06037 12.7315
lfingers 7.12502
lthumb 18.8128 41.8418
rfemur -4.86034 6.32061 19.985
rtibia 15.9614
rfoot -12.4415 -5.10593
rtoes -3.89949
lfemur -0.994008 -9.36749 -19.422
ltibia 14.9566
lfoot -22.0618 23.8523
ltoes -9.75993
954
root 12.9284 17.6405 3.97421 -174.5 73.3077 -174.62
lowerback -4.27608 -1.75646 1.50777
upperback -0.409186 -2.39099 -0.606256
thorax 1.88729 -1.17603 -1.60488
lowerneck -0.0798934 13.4607 -1.42065
upperneck -1.47436 18.0179 -6.4974
head 0.0561231 9.06989 -1.69413
rclavicle 2.23757e-014 -3.97569e-016
rhumerus -31.2658 -6.76119 -91.7915
rradius 24.3071
rwrist 32.3406
rhand 14.5428 -17.268
rfingers 7.12502
rthumb 39.4211 -42.6661
lclavicle 2.23757e-014 -3.97569e-016
lhumerus -36.9047 17.4134 84.2749
lradius 31.6478
lwrist -15.4837
lhand -6.85855 12.6611
lfingers 7.12502
lthumb 19.0069 41.7525
rfemur -4.82629 4.94801 20.0232
rtibia 16.0247
rfoot -12.5725 -3.93379
rtoes -4.40353
lfemur -0.887072 -9.33553 -19.397
ltibia 14.975
lfoot -22.0679 23.7933
ltoes -9.86878
955
root 12.9361 17.6415 3.97807 -174.604 73.2406 -174.692
lowerback -4.37539 -1.79186 1.52483
upperback -0.353509 -2.44081 -0.614357
thorax 1.99714 -1.19928 -1.63047
lowerneck -0.0537948 13.4465 -1.41054
upperneck -1.65759 17.9874 -6.53852
head -0.00124579 9.06005 -1.71887
rclavicle 4.82177e-014 0
rhumerus -31.1091 -6.5953 -91.8386
rradius 24.3037
rwrist 32.572
rhand 14.6462 -17.1934
rfingers 7.12502
rthumb 39.5185 -42.5629
lclavicle 4.82177e-014 0
lhumerus -36.6731 17.0163 84.6531
lradius 31.8476
lwrist -15.6902
lhand -6.60159 12.2714
lfingers 7.12502
lthumb 19.254 41.3383
rfemur -4.7709 4.55403 20.0098
rtibia 16.0744
rfoot -12.7006 -3.61213
rtoes -3.96497
lfemur -0.835751 -9.64327 -19.3959
ltibia 15.0395
lfoot -22.4515 23.7582
ltoes -9.11899
956
root 12.9424 17.6371 3.98236 -174.787 73.1641 -174.813
lowerback -4.41705 -1.77844 1.621
upperback -0.314029 -2.4279 -0.652717
thorax 2.0559 -1.19106 -1.72535
lowerneck -0.0675225 13.3766 -1.55767
upperneck -1.70597 17.8876 -6.3852
head -0.0446009 9.011 -1.65715
rclavicle 2.84386e-014 3.97569e-016
rhumerus -31.0006 -6.01527 -91.9946
rradius 24.3502
rwrist 32.2747
rhand 14.5065 -17.2776
rfingers 7.12502
rthumb 39.3869 -42.6857
lclavicle 2.84386e-014 3.97569e-016
lhumerus -36.4117 15.9897 85.409
lradius 32.1429
lwrist -14.8254
lhand -6.52248 12.3613
lfingers 7.12502
lthumb 19.33 41.4206
rfemur -4.60155 4.68804 20.0486
rtibia 16.0309
rfoot -12.8037 -3.94792
rtoes -4.4386
lfemur -0.826154 -9.63848 -19.4252
ltibia 15.2075
lfoot -22.5576 23.6869
ltoes -9.12412
957
root 12.9492 17.631 3.98573 -174.931 73.1114 -174.923
lowerback -4.47061 -1.81093 1.63565
upperback -0.279103 -2.47314 -0.653283
thorax 2.11931 -1.21259 -1.73959
lowerneck -0.134881 13.3676 -1.59756
upperneck -1.67739 17.8782 -6.32862
head -0.0340094 9.0043 -1.62879
rclavicle -5.0131e-014 -1.35174e-014
rhumerus -30.7666 -5.60908 -92.1914
rradius 24.2595
rwrist 32.2336
rhand 14.4528 -17.4458
rfingers 7.12502
rthumb 39.3363 -42.8686
lclavicle -5.0131e-014 -1.35174e-014
lhumerus -36.1878 15.1671 86.0152
lradius 32.4497
lwrist -14.4476
lhand -6.62368 12.6191
lfingers 7.12502
lthumb 19.2327 41.6881
rfemur -4.39354 5.65849 20.1046
rtibia 15.9172
rfoot -12.8645 -5.03537
rtoes -4.4876
lfemur -0.886845 -9.24373 -19.4607
ltibia 15.4407
lfoot -22.3786 23.5743
ltoes -9.90734
958
root 12.9552 17.625 3.98886 -174.806 73.0811 -174.741
lowerback -4.50418 -1.80964 1.77757
upperback -0.257467 -2.47876 -0.681955
thorax 2.15287 -1.21344 -1.85054
lowerneck -0.0740665 13.3392 -1.4531
upperneck -1.69631 17.8381 -6.40307
head -0.0309574 8.98507 -1.67591
rclavicle 1.49213e-014 -3.97569e-016
rhumerus -30.6308 -5.43139 -92.3726
rradius 24.236
rwrist 32.5232
rhand 14.3049 -17.3216
rfingers 7.12502
rthumb 39.197 -42.7849
lclavicle 1.49213e-014 -3.97569e-016
lhumerus -35.996 14.5576 86.4086
lradius 32.6497
lwrist -14.5289
lhand -6.39705 12.5844
lfingers 7.12502
lthumb 19.4506 41.6316
rfemur -4.18934 6.76272 20.2447
rtibia 15.8284
rfoot -13.1353 -6.10826
rtoes -4.21813
lfemur -0.909063 -9.27644 -19.4126
ltibia 15.6656
lfoot -22.4361 23.6868
ltoes -10.1309
959
root 12.9584 17.6181 3.99435 -174.539 72.9715 -174.442
lowerback -4.51662 -1.82006 1.99052
upperback -0.265268 -2.50263 -0.722587
thorax 2.13986 -1.22338 -2.01313
lowerneck -0.00817239 13.2962 -1.39589
upperneck -1.7098 17.7755 -6.34745
head -0.0478067 8.95389 -1.67406
rclavicle -1.39274e-014 -2.38542e-015
rhumerus -30.4885 -5.25184 -92.5554
rradius 24.1896
rwrist 32.8939
rhand 14.4069 -17.1991
rfingers 7.12502
rthumb 39.2931 -42.6346
lclavicle -1.39274e-014 -2.38542e-015
lhumerus -35.8536 13.8206 86.8272
lradius 32.8826
lwrist -14.3061
lhand -6.60223 12.7579
lfingers 7.12502
lthumb 19.2533 41.8248
rfemur -3.91531 9.32933 20.5335
rtibia 15.6976
rfoot -13.6008 -8.63556
rtoes -3.88455
lfemur -1.01459 -9.31148 -19.2809
ltibia 15.926
lfoot -22.5985 23.6205
ltoes -10.1042
960
root 12.9621 17.615 4.00144 -174.65 72.9317 -174.52
lowerback -4.4981 -1.83809 2.05459
upperback -0.271697 -2.52847 -0.764179
thorax 2.11698 -1.23587 -2.09236
lowerneck 0.0430902 13.2832 -1.34231
upperneck -1.71376 17.7553 -6.32533
head -0.0553073 8.94386 -1.67934
rclavicle 6.97983e-014 -3.57812e-015
rhumerus -30.3441 -4.95879 -92.752
rradius 24.1705
rwrist 33.0798
rhand 14.3952 -17.0623
rfingers 7.12502
rthumb 39.282 -42.501
lclavicle 6.97983e-014 -3.57812e-015
lhumerus -35.7337 13.1727 87.2659
lradius 33.1433
lwrist -14.0884
lhand -6.73665 13.0249
lfingers 7.12502
lthumb 19.1241 42.1047
rfemur -3.64011 11.7038 20.6573
rtibia 15.5206
rfoot -14.093 -10.8299
rtoes -3.00136
lfemur -1.11351 -9.25151 -19.2767
ltibia 16.2125
lfoot -22.7451 23.5416
ltoes -10.0623
